<?xml version="1.0" standalone="no"?>
<!DOCTYPE svg PUBLIC "-//W3C//DTD SVG 20010904//EN"
 "http://www.w3.org/TR/2001/REC-SVG-20010904/DTD/svg10.dtd">
<svg version="1.0" xmlns="http://www.w3.org/2000/svg"
 width="512.000000pt" height="512.000000pt" viewBox="0 0 512.000000 512.000000"
 preserveAspectRatio="xMidYMid meet">

<g transform="translate(0.000000,512.000000) scale(0.100000,-0.100000)"
fill="#000000" stroke="none">
<path d="M2 4683 l3 -438 27 -51 c40 -76 118 -140 191 -158 l27 -6 0 -714 0
-714 -96 -4 c-94 -3 -96 -4 -125 -36 l-29 -32 0 -1230 0 -1230 29 -32 29 -33
287 -3 286 -3 35 35 34 34 0 166 0 166 1860 0 1860 0 0 -165 0 -165 29 -32 29
-33 286 -3 285 -3 33 30 33 29 0 1242 0 1242 -33 29 c-31 27 -37 29 -122 29
l-90 0 0 715 0 715 28 6 c72 18 150 82 190 158 l27 51 3 438 3 437 -2561 0
-2561 0 3 -437z m888 -82 l0 -319 -30 -26 c-58 -48 -147 -43 -190 11 -19 25
-20 40 -20 339 l0 314 120 0 120 0 0 -319z m900 14 c0 -208 -4 -312 -12 -329
-24 -54 -99 -77 -164 -51 -73 29 -74 33 -74 379 l0 306 125 0 125 0 0 -305z
m890 -9 c0 -301 -1 -314 -21 -339 -11 -15 -38 -32 -60 -38 -50 -16 -109 1
-138 38 -20 25 -21 38 -21 339 l0 314 120 0 120 0 0 -314z m900 8 c0 -346 -1
-350 -74 -379 -65 -26 -140 -3 -164 51 -8 17 -12 121 -12 329 l0 305 125 0
125 0 0 -306z m890 -8 c0 -299 -1 -314 -20 -339 -43 -54 -132 -59 -190 -11
l-30 26 0 319 0 319 120 0 120 0 0 -314z m-3905 -516 c4 -6 24 -19 46 -30 l39
-20 0 -720 0 -720 -100 0 -100 0 0 719 0 718 48 31 c53 34 58 36 67 22z m471
-15 c45 -31 124 -55 178 -55 58 0 142 24 186 54 l38 25 72 -37 c66 -34 80 -37
155 -37 75 0 89 3 155 37 l72 37 36 -24 c56 -36 146 -58 213 -52 52 4 138 37
180 68 12 9 24 6 56 -15 23 -15 62 -34 89 -42 92 -27 196 -12 277 42 32 21 44
24 56 15 42 -31 128 -64 180 -68 67 -6 157 16 213 52 l36 24 72 -37 c66 -34
80 -37 155 -37 75 0 89 3 155 37 l72 37 38 -25 c44 -30 128 -54 186 -54 55 0
133 24 180 56 30 21 41 24 54 15 8 -7 41 -24 73 -39 l57 -27 0 -712 0 -713
-135 0 -135 0 0 371 c0 235 -4 377 -10 390 -18 32 -64 49 -139 49 l-70 0 -3
171 -3 171 -33 29 -33 30 -435 -3 -436 -3 -29 -33 -29 -32 0 -165 0 -165 -72
0 c-92 0 -132 -21 -147 -77 -7 -23 -11 -172 -11 -385 l0 -348 -139 0 -140 0
-3 171 -3 171 -33 29 -33 29 -559 -2 -560 -3 -27 -28 -28 -27 -3 -170 -3 -170
-85 0 -84 0 0 713 0 713 54 23 c30 12 60 29 67 37 16 19 22 18 65 -11z m3581
-5 l43 -25 0 -722 0 -723 -100 0 -100 0 6 718 c5 623 8 718 21 727 9 6 29 20
47 32 36 25 29 25 83 -7z m-1037 -560 l0 -100 -300 0 -300 0 0 100 0 100 300
0 300 0 0 -100z m220 -605 l0 -305 -525 0 -525 0 0 100 0 100 194 0 194 0 31
31 c24 23 31 39 31 69 0 30 -7 46 -31 69 l-31 31 -189 0 -189 0 0 105 0 105
520 0 520 0 0 -305z m-1730 -205 l0 -100 -425 0 -425 0 0 100 0 100 425 0 425
0 0 -100z m2850 -400 l0 -100 -2360 0 -2360 0 0 100 0 100 2360 0 2360 0 0
-100z m-4150 -735 c35 -36 34 -95 -3 -132 -60 -61 -162 -19 -162 66 0 89 101
130 165 66z m412 25 c41 -12 88 -61 88 -92 0 -30 -59 -84 -102 -92 -53 -10
-112 9 -142 45 -33 38 -33 60 0 98 37 45 91 59 156 41z m1503 -5 c74 -16 160
-61 160 -85 0 -41 -167 -100 -285 -100 -118 0 -285 59 -285 100 0 23 86 69
156 84 84 19 168 19 254 1z m911 0 c77 -32 77 -138 -1 -170 -31 -14 -39 -14
-70 0 -50 20 -71 71 -51 120 10 23 27 41 48 50 41 18 33 18 74 0z m800 0 c77
-32 77 -138 -1 -170 -31 -14 -39 -14 -70 0 -50 20 -71 71 -51 120 10 23 27 41
48 50 41 18 33 18 74 0z m-4060 -800 c77 -32 77 -138 -1 -170 -31 -14 -39 -14
-70 0 -50 20 -71 71 -51 120 10 23 27 41 48 50 41 18 33 18 74 0z m400 0 c77
-32 77 -138 -1 -170 -31 -14 -39 -14 -70 0 -50 20 -71 71 -51 120 10 23 27 41
48 50 41 18 33 18 74 0z m400 0 c77 -32 77 -138 -1 -170 -31 -14 -39 -14 -70
0 -50 20 -71 71 -51 120 10 23 27 41 48 50 41 18 33 18 74 0z m1524 5 c67 -11
158 -49 180 -75 17 -21 1 -38 -64 -70 -74 -36 -195 -51 -298 -36 -82 11 -174
47 -198 76 -17 21 -1 38 64 70 84 41 198 53 316 35z m1387 -17 c50 -33 48
-115 -5 -149 -34 -22 -100 -22 -134 0 -90 59 -22 190 87 169 16 -3 40 -12 52
-20z m430 0 c50 -33 48 -115 -5 -149 -34 -22 -100 -22 -134 0 -90 59 -22 190
87 169 16 -3 40 -12 52 -20z"/>
<path d="M3431 2969 c-24 -23 -31 -39 -31 -69 0 -54 46 -100 100 -100 54 0
100 46 100 100 0 30 -7 46 -31 69 -23 24 -39 31 -69 31 -30 0 -46 -7 -69 -31z"/>
</g>
</svg>
